<?xml version="1.0" encoding="UTF-8" standalone="no"?>
<svg
   xmlns:dc="http://purl.org/dc/elements/1.1/"
   xmlns:cc="http://creativecommons.org/ns#"
   xmlns:rdf="http://www.w3.org/1999/02/22-rdf-syntax-ns#"
   xmlns:svg="http://www.w3.org/2000/svg"
   xmlns="http://www.w3.org/2000/svg"
   xmlns:sodipodi="http://sodipodi.sourceforge.net/DTD/sodipodi-0.dtd"
   xmlns:inkscape="http://www.inkscape.org/namespaces/inkscape"
   inkscape:version="1.0 (6e3e5246a0, 2020-05-07)"
   height="1440"
   width="319"
   sodipodi:docname="wave13.svg"
   id="svg331"
   version="1.1"
   viewBox="0 0 319 1440">
  <metadata
     id="metadata337">
    <rdf:RDF>
      <cc:Work
         rdf:about="">
        <dc:format>image/svg+xml</dc:format>
        <dc:type
           rdf:resource="http://purl.org/dc/dcmitype/StillImage" />
        <dc:title></dc:title>
      </cc:Work>
    </rdf:RDF>
  </metadata>
  <defs
     id="defs335" />
  <sodipodi:namedview
     inkscape:current-layer="svg331"
     inkscape:window-maximized="1"
     inkscape:window-y="0"
     inkscape:window-x="0"
     inkscape:cy="308.62342"
     inkscape:cx="795.6457"
     inkscape:zoom="0.88333333"
     showgrid="false"
     id="namedview333"
     inkscape:window-height="1164"
     inkscape:window-width="1920"
     inkscape:pageshadow="2"
     inkscape:pageopacity="0"
     guidetolerance="10"
     gridtolerance="10"
     objecttolerance="10"
     borderopacity="1"
     bordercolor="#666666"
     pagecolor="#ffffff" />
  <path
     id="path329"
     d="m 65.098488,1.1974806 21.3,48.0000004 c 21.700002,48 63.700002,143.999999 101.400002,239.999999 37.3,96 69.3,192.00001 37.3,288.00001 -32,95.99999 -128.000002,191.99999 -149.300002,287.99999 -21.7,96 32.300002,192.00002 64.000002,288.00002 32.3,96 42.3,192 48,240 l 5.3,48 H 1.0984885 v -48 c 0,-48 0,-144 0,-240 0,-96 0,-192.00002 0,-288.00002 0,-96 0,-192 0,-287.99999 0,-96 0,-192.00001 0,-288.00001 0,-96 0,-191.999999 0,-239.999999 V 1.1974806 Z"
     fill-opacity="1"
     fill="#0099ff" />
</svg>
