<?xml version="1.0" encoding="UTF-8" standalone="no"?>
<svg
   xmlns:dc="http://purl.org/dc/elements/1.1/"
   xmlns:cc="http://creativecommons.org/ns#"
   xmlns:rdf="http://www.w3.org/1999/02/22-rdf-syntax-ns#"
   xmlns:svg="http://www.w3.org/2000/svg"
   xmlns="http://www.w3.org/2000/svg"
   xmlns:sodipodi="http://sodipodi.sourceforge.net/DTD/sodipodi-0.dtd"
   xmlns:inkscape="http://www.inkscape.org/namespaces/inkscape"
   viewBox="0 0 1440 320"
   version="1.1"
   id="svg4"
   sodipodi:docname="wave(2)aaa.svg"
   inkscape:export-filename="/home/mick/apps/projects/router-vanilla/src/img/wave(2)a.png"
   inkscape:export-xdpi="96"
   inkscape:export-ydpi="96"
   width="1440"
   height="320"
   inkscape:version="0.92.4 (fd57863, 2020-04-02)">
  <metadata
     id="metadata10">
    <rdf:RDF>
      <cc:Work
         rdf:about="">
        <dc:format>image/svg+xml</dc:format>
        <dc:type
           rdf:resource="http://purl.org/dc/dcmitype/StillImage" />
        <dc:title></dc:title>
      </cc:Work>
    </rdf:RDF>
  </metadata>
  <defs
     id="defs8" />
  <sodipodi:namedview
     pagecolor="#ffffff"
     bordercolor="#666666"
     borderopacity="1"
     objecttolerance="10"
     gridtolerance="10"
     guidetolerance="10"
     inkscape:pageopacity="0"
     inkscape:pageshadow="2"
     inkscape:window-width="1270"
     inkscape:window-height="1170"
     id="namedview6"
     showgrid="false"
     inkscape:zoom="0.54583333"
     inkscape:cx="819.00118"
     inkscape:cy="778.19036"
     inkscape:window-x="0"
     inkscape:window-y="0"
     inkscape:window-maximized="0"
     inkscape:current-layer="svg4"
     units="mm" />
  <g
     id="g3763"
     transform="rotate(-90.26775,720,125.02854)">
    <g
       id="g3758">
      <g
         id="g3754">
        <path
           style="fill:#0099ff;fill-opacity:1"
           inkscape:connector-curvature="0"
           id="path2"
           d="M 0,160 48,138.7 C 96,117 192,75 288,64 c 96,-11 192,11 288,48 96,37 192,91 288,117.3 96,26.7 192,26.7 288,5.4 96,-21.7 192,-63.7 240,-85.4 L 1440,128 V 0 h -48 C 1344,0 1248,0 1152,0 1056,0 960,0 864,0 768,0 672,0 576,0 480,0 384,0 288,0 192,0 96,0 48,0 H 0 Z" />
      </g>
    </g>
  </g>
</svg>
