<?xml-stylesheet type="text/css" href="../css/waveSVG.css"?>
<svg version="1.1" id="wave-svg" xmlns="http://www.w3.org/2000/svg" xmlns:xlink="http://www.w3.org/1999/xlink" viewBox="0 0 233.02979 1440">
    <defs>
        <linearGradient id="grad2" x1="0%" y1="0%" x2="0%" y2="100%">
            <stop offset="0%">
                <!--<animate attributeName="offset" values="0;1" repeatCount="1" dur="0s" begin="0s"/>-->
            </stop>
            <stop offset="100%">
                <animate attributeName="offset" values="0;1" repeatCount="0" dur="8s" begin="0s"/>
            </stop>
        </linearGradient>
    </defs>
    <g stroke="none" stroke-width="20" fill="#000" fill-rule="nonzero">
       <path  d="M0,192L20,165.3C40,139,80,85,120,58.7C160,32,200,32,240,80C280,128,320,224,360,224C400,224,440,128,480,80C520,32,560,32,600,48C640,64,680,96,720,122.7C760,149,800,171,840,170.7C880,171,920,149,960,133.3C1000,117,1040,107,1080,122.7C1120,139,1160,181,1200,208C1240,235,1280,245,1320,213.3C1360,181,1400,107,1420,69.3L1440,32L1440,0L1420,0C1400,0,1360,0,1320,0C1280,0,1240,0,1200,0C1160,0,1120,0,1080,0C1040,0,1000,0,960,0C920,0,880,0,840,0C800,0,760,0,720,0C680,0,640,0,600,0C560,0,520,0,480,0C440,0,400,0,360,0C320,0,280,0,240,0C200,0,160,0,120,0C80,0,40,0,20,0L0,0Z"></path>
    </g>
</svg>
