<!-- <?xml version="1.0" standalone="no"?><svg xmlns="http://www.w3.org/2000/svg" viewBox="0 0 1440 320"><path fill="#0099ff" fill-opacity="1" d="M0,0L60,26.7C120,53,240,107,360,112C480,117,600,75,720,96C840,117,960,203,1080,240C1200,277,1320,267,1380,261.3L1440,256L1440,320L1380,320C1320,320,1200,320,1080,320C960,320,840,320,720,320C600,320,480,320,360,320C240,320,120,320,60,320L0,320Z"></path></svg> -->


<?xml-stylesheet type="text/css" href="../css/waveSVG.css"?>
<svg version="1.1" id="wave-svg" xmlns="http://www.w3.org/2000/svg" xmlns:xlink="http://www.w3.org/1999/xlink" viewBox="0 0 320 1440" preserveAspectRatio="none">
    <!-- <defs>
        <linearGradient id="grad2" x1="0%" y1="0%" x2="0%" y2="100%">
            <stop offset="0%"> -->
                <!--<animate attributeName="offset" values="0;1" repeatCount="1" dur="0s" begin="0s"/>-->
            <!-- </stop>
            <stop offset="100%">
                <animate attributeName="offset" values="0;1" repeatCount="0" dur="8s" begin="0s"/>
            </stop>
        </linearGradient>
    </defs> -->
    <g stroke="#fff" stroke-width="0" fill="none" fill-rule="nonzero" transform="rotate(-90,721.1374,719.75373)">
        <path d="M0,0L60,26.7C120,53,240,107,360,112C480,117,600,75,720,96C840,117,960,203,1080,240C1200,277,1320,267,1380,261.3L1440,256L1440,320L1380,320C1320,320,1200,320,1080,320C960,320,840,320,720,320C600,320,480,320,360,320C240,320,120,320,60,320L0,320Z"></path>
    </g>
</svg>